M48
; DRILL file {KiCad (6.0.9)} date Sat Jan  7 11:29:35 2023
; FORMAT={-:-/ absolute / metric / decimal}
; #@! TF.CreationDate,2023-01-07T11:29:35+02:00
; #@! TF.GenerationSoftware,Kicad,Pcbnew,(6.0.9)
; #@! TF.FileFunction,MixedPlating,1,6
FMAT,2
METRIC
; #@! TA.AperFunction,Plated,PTH,ViaDrill
T1C0.200
; #@! TA.AperFunction,Plated,PTH,ComponentDrill
T2C0.600
; #@! TA.AperFunction,Plated,PTH,ComponentDrill
T3C0.650
; #@! TA.AperFunction,Plated,PTH,ComponentDrill
T4C0.800
; #@! TA.AperFunction,Plated,PTH,ComponentDrill
T5C4.300
; #@! TA.AperFunction,NonPlated,NPTH,ComponentDrill
T6C0.600
; #@! TA.AperFunction,NonPlated,NPTH,ComponentDrill
T7C0.630
; #@! TA.AperFunction,NonPlated,NPTH,ComponentDrill
T8C0.900
; #@! TA.AperFunction,NonPlated,NPTH,ComponentDrill
T9C0.991
%
G90
G05
T1
X123.75Y-94.3
X124.1Y-98.2
X124.4Y-89.5
X124.45Y-97.25
X124.65Y-94.7
X124.75Y-92.0
X126.57Y-70.49
X126.6Y-68.93
X128.3Y-84.675
X129.06Y-84.08
X129.85Y-67.85
X129.9Y-91.35
X129.9Y-93.45
X130.3Y-84.0
X130.4Y-94.35
X130.5Y-72.9
X130.6Y-79.6
X130.675Y-96.075
X131.0Y-91.35
X131.0Y-93.45
X131.9Y-96.3
X132.0Y-67.58
X132.0Y-94.2
X132.05Y-98.2
X132.64Y-72.38
X132.68Y-71.15
X132.9Y-97.5
X133.25Y-65.73
X133.6Y-73.78
X133.75Y-65.13
X134.2Y-88.4
X134.61Y-77.56
X134.65Y-60.13
X134.77Y-65.01
X135.05Y-66.26
X135.2Y-90.5
X135.25Y-60.93
X135.25Y-84.381
X135.28Y-58.79
X135.95Y-62.83
X136.3Y-85.731
X136.75Y-66.83
X136.95Y-72.35
X137.0Y-71.65
X137.0Y-73.37
X137.01Y-69.727
X137.05Y-68.69
X137.05Y-70.52
X137.391Y-64.816
X138.31Y-93.9
X138.32Y-81.43
X138.343Y-95.858
X139.497Y-84.725
X139.5Y-83.98
X140.05Y-77.23
X140.18Y-70.62
X140.28Y-82.19
X140.3Y-79.455
X140.35Y-60.33
X140.44Y-71.69
X140.45Y-63.03
X140.45Y-64.43
X140.5Y-88.55
X140.5Y-89.75
X140.5Y-96.575
X140.545Y-62.125
X140.7Y-66.68
X140.7Y-99.3
X140.73Y-97.85
X140.85Y-76.83
X140.85Y-102.375
X140.875Y-100.75
X140.95Y-77.805
X141.125Y-79.955
X141.2Y-67.43
X141.25Y-65.83
X141.55Y-69.13
X141.55Y-72.83
X141.55Y-82.33
X141.57Y-81.47
X141.629Y-86.168
X141.65Y-85.419
X141.85Y-72.13
X141.9Y-103.5
X142.12Y-79.88
X142.45Y-68.19
X142.57Y-67.33
X143.1Y-85.75
X143.225Y-68.705
X143.47Y-91.84
X143.725Y-86.325
X143.77Y-64.64
X143.95Y-58.63
X143.95Y-82.03
X144.0Y-62.83
X144.05Y-81.13
X144.3Y-88.2
X144.35Y-67.93
X144.4Y-86.95
X144.4Y-103.5
X144.82Y-64.55
X145.0Y-70.83
X145.03Y-59.88
X145.03Y-72.37
X145.08Y-60.48
X145.15Y-61.83
X145.225Y-94.83
X145.35Y-71.53
X145.4Y-97.8
X145.45Y-63.83
X145.45Y-102.25
X145.475Y-96.88
X145.52Y-73.47
X145.65Y-69.63
X145.775Y-74.18
X145.95Y-61.83
X146.0Y-81.2
X146.05Y-58.63
X146.2Y-82.0
X146.8Y-80.8
X147.0Y-63.83
X147.55Y-83.83
X147.83Y-59.78
X147.85Y-100.825
X148.05Y-61.13
X148.15Y-77.33
X148.25Y-60.405
X148.25Y-82.08
X148.56Y-81.22
X148.88Y-64.62
X148.957Y-77.44
X149.225Y-65.28
X149.34Y-86.88
X149.35Y-85.86
X149.66Y-64.1
X149.71Y-70.35
X149.87Y-77.73
X150.05Y-76.23
X150.29Y-69.86
X150.35Y-77.13
X150.55Y-78.23
X150.925Y-81.63
X151.05Y-69.43
X151.25Y-83.73
X151.475Y-62.93
X151.59Y-77.19
X151.7Y-63.68
X151.775Y-89.405
X151.975Y-65.43
X152.225Y-64.28
X152.35Y-78.22
X152.6Y-82.02
X152.75Y-72.73
X152.75Y-86.68
X153.05Y-65.43
X153.05Y-75.43
X153.15Y-71.73
X153.225Y-76.305
X153.38Y-72.4
X153.45Y-89.705
X153.5Y-59.5
X153.65Y-79.405
X154.1Y-97.855
X154.42Y-82.68
X154.48Y-81.46
X154.5Y-65.655
X155.0Y-98.83
X155.59Y-81.99
X155.8Y-88.98
X155.9Y-89.88
X156.1Y-78.88
X156.15Y-69.93
X156.3Y-72.13
X156.65Y-82.73
X156.68Y-76.81
X157.15Y-83.43
X157.196Y-88.929
X157.2Y-68.98
X157.375Y-102.83
X157.45Y-72.18
X157.5Y-95.8
X157.6Y-79.63
X157.688Y-63.392
X157.75Y-61.73
X157.9Y-67.655
X158.19Y-77.39
X158.3Y-76.505
X158.4Y-72.33
X158.6Y-63.03
X158.65Y-69.03
X159.02Y-77.42
X159.05Y-61.73
X159.1Y-79.68
X159.25Y-67.43
X159.85Y-84.13
X160.17Y-63.021
X160.2Y-64.33
X160.275Y-91.53
X160.375Y-90.33
X160.55Y-82.48
X160.69Y-97.61
X160.715Y-95.235
X160.75Y-68.91
X160.75Y-79.33
X161.5Y-68.9
X161.515Y-95.21
X161.55Y-64.98
X161.55Y-82.53
X161.59Y-97.61
X161.6Y-71.2
X162.1Y-86.33
X162.125Y-65.405
X162.15Y-84.13
X162.4Y-105.7
X162.41Y-96.07
X162.41Y-99.24
X162.42Y-92.72
X162.42Y-102.56
X162.53Y-90.15
X162.675Y-66.105
X162.81Y-68.945
X163.0Y-72.83
X163.35Y-65.705
X163.375Y-64.98
X163.45Y-81.53
X163.625Y-82.63
X163.76Y-87.46
X164.95Y-70.14
X165.35Y-72.23
X165.35Y-80.63
X165.375Y-82.23
X165.75Y-75.33
X165.79Y-85.74
X166.39Y-90.29
X166.45Y-74.13
X166.45Y-82.47
X166.52Y-87.79
X167.45Y-73.13
X168.025Y-82.28
X168.03Y-92.22
X168.08Y-87.76
X168.11Y-86.26
X168.12Y-90.77
X168.55Y-72.33
X168.78Y-73.45
X169.09Y-93.47
X169.15Y-79.49
X169.47Y-84.86
X171.0Y-67.605
X171.95Y-93.51
X172.35Y-84.77
T2
X124.85Y-62.375
X124.85Y-102.275
X125.795Y-60.095
X125.795Y-64.655
X125.795Y-99.995
X125.795Y-104.555
X128.075Y-59.15
X128.075Y-65.6
X128.075Y-99.05
X128.075Y-105.5
X130.355Y-60.095
X130.355Y-64.655
X130.355Y-99.995
X130.355Y-104.555
X131.3Y-62.375
X131.3Y-102.275
X164.75Y-62.375
X164.75Y-102.275
X165.695Y-60.095
X165.695Y-64.655
X165.695Y-99.995
X165.695Y-104.555
X167.975Y-59.15
X167.975Y-65.6
X167.975Y-99.05
X167.975Y-105.5
X170.255Y-60.095
X170.255Y-64.655
X170.255Y-99.995
X170.255Y-104.555
X171.2Y-62.375
X171.2Y-102.275
T4
X129.6Y-85.1
X129.6Y-87.1
T5
X128.075Y-62.375
X128.075Y-102.275
X167.975Y-62.375
X167.975Y-102.275
T6
X128.1Y-79.3
T7
X128.1Y-73.3
X128.1Y-79.3
T8
X154.65Y-59.15
X157.65Y-59.15
T9
X125.884Y-91.16
X126.9Y-96.24
X127.916Y-91.16
T3
G00X125.65Y-71.98
M15
G01X124.35Y-71.98
M16
G05
G00X125.65Y-80.62
M15
G01X124.35Y-80.62
M16
G05
G00X129.325Y-71.98
M15
G01X128.325Y-71.98
M16
G05
G00X129.325Y-80.62
M15
G01X128.325Y-80.62
M16
G05
T0
M30
